<?xml version="1.0" encoding="UTF-8" standalone="no"?>
<svg
   xmlns:dc="http://purl.org/dc/elements/1.1/"
   xmlns:cc="http://creativecommons.org/ns#"
   xmlns:rdf="http://www.w3.org/1999/02/22-rdf-syntax-ns#"
   xmlns:svg="http://www.w3.org/2000/svg"
   xmlns="http://www.w3.org/2000/svg"
   xmlns:sodipodi="http://sodipodi.sourceforge.net/DTD/sodipodi-0.dtd"
   xmlns:inkscape="http://www.inkscape.org/namespaces/inkscape"
   xml:space="preserve"
   enable-background="new 0 0 841.89 595.28"
   viewBox="0 0 96.372 96.376994"
   height="96.376999"
   width="96.372002"
   y="0px"
   x="0px"
   id="Calque_1"
   version="1.1"
   sodipodi:docname="liberapay.svg"
   inkscape:version="0.92.3 (2405546, 2018-03-11)"><sodipodi:namedview
   pagecolor="#ffffff"
   bordercolor="#666666"
   borderopacity="1"
   objecttolerance="10"
   gridtolerance="10"
   guidetolerance="10"
   inkscape:pageopacity="0"
   inkscape:pageshadow="2"
   inkscape:window-width="1920"
   inkscape:window-height="1000"
   id="namedview9"
   showgrid="false"
   fit-margin-top="0"
   fit-margin-left="0"
   fit-margin-right="0"
   fit-margin-bottom="0"
   inkscape:zoom="1.03"
   inkscape:cx="-66.964735"
   inkscape:cy="97.252985"
   inkscape:window-x="0"
   inkscape:window-y="28"
   inkscape:window-maximized="1"
   inkscape:current-layer="Calque_1" /><metadata
   id="metadata15"><rdf:RDF><cc:Work
       rdf:about=""><dc:format>image/svg+xml</dc:format><dc:type
         rdf:resource="http://purl.org/dc/dcmitype/StillImage" /><dc:title /></cc:Work></rdf:RDF></metadata><defs
   id="defs13" />

<path
   id="path2"
   d="m 96.372,87.059 c 0,5.145 -4.169,9.318 -9.318,9.318 H 9.318 C 4.174,96.377 0,92.203 0,87.059 V 9.318 C 0,4.173 4.174,0 9.318,0 h 77.736 c 5.149,0 9.318,4.173 9.318,9.318 z"
   inkscape:connector-curvature="0"
   style="fill:#e95420;fill-opacity:1" />
<g
   id="g8"
   transform="translate(-163.178,-298.516)">
	<path
   id="path4"
   d="m 202.447,366.031 c -3.104,0 -5.541,-0.405 -7.311,-1.213 -1.77,-0.809 -3.039,-1.912 -3.803,-3.313 -0.766,-1.398 -1.137,-3.004 -1.115,-4.818 0.021,-1.814 0.272,-3.748 0.754,-5.803 l 8.327,-34.817 10.164,-1.573 -9.114,37.768 c -0.175,0.786 -0.273,1.508 -0.295,2.163 -0.023,0.655 0.098,1.235 0.36,1.737 0.262,0.504 0.71,0.908 1.344,1.213 0.633,0.307 1.519,0.504 2.656,0.591 z"
   inkscape:connector-curvature="0"
   style="fill:#ffffff" />
	<path
   id="path6"
   d="m 239.165,344.328 c 0,3.19 -0.525,6.108 -1.574,8.753 -1.049,2.646 -2.503,4.929 -4.36,6.852 -1.858,1.925 -4.087,3.421 -6.688,4.491 -2.601,1.07 -5.432,1.607 -8.49,1.607 -1.487,0 -2.973,-0.132 -4.459,-0.395 l -2.951,11.869 h -9.704 l 10.884,-45.374 c 1.748,-0.524 3.748,-0.994 5.999,-1.41 2.252,-0.415 4.689,-0.622 7.312,-0.622 2.448,0 4.558,0.371 6.327,1.114 1.771,0.743 3.224,1.76 4.361,3.049 1.136,1.29 1.977,2.798 2.523,4.524 0.546,1.726 0.82,3.574 0.82,5.542 z m -23.802,13.442 c 0.743,0.175 1.661,0.262 2.754,0.262 1.704,0 3.256,-0.316 4.655,-0.951 1.398,-0.633 2.59,-1.518 3.574,-2.655 0.982,-1.136 1.747,-2.501 2.294,-4.098 0.546,-1.595 0.819,-3.354 0.819,-5.278 0,-1.879 -0.416,-3.475 -1.245,-4.787 -0.831,-1.311 -2.273,-1.967 -4.327,-1.967 -1.4,0 -2.711,0.131 -3.935,0.394 z"
   inkscape:connector-curvature="0"
   style="fill:#ffffff" />
</g>
</svg>
